<?xml version="1.0" encoding="UTF-8" standalone="no"?>
<!-- Created with Inkscape (http://www.inkscape.org/) -->

<svg
   xmlns:dc="http://purl.org/dc/elements/1.1/"
   xmlns:cc="http://creativecommons.org/ns#"
   xmlns:rdf="http://www.w3.org/1999/02/22-rdf-syntax-ns#"
   xmlns:svg="http://www.w3.org/2000/svg"
   xmlns="http://www.w3.org/2000/svg"
   xmlns:sodipodi="http://sodipodi.sourceforge.net/DTD/sodipodi-0.dtd"
   xmlns:inkscape="http://www.inkscape.org/namespaces/inkscape"
   version="1.1"
   id="svg2"
   xml:space="preserve"
   width="400"
   height="500"
   viewBox="0 0 400 500"
   sodipodi:docname="venn_LBP_FCN2.svg"
   inkscape:version="0.92.2 5c3e80d, 2017-08-06"><metadata
     id="metadata8"><rdf:RDF><cc:Work
         rdf:about=""><dc:format>image/svg+xml</dc:format><dc:type
           rdf:resource="http://purl.org/dc/dcmitype/StillImage" /><dc:title></dc:title></cc:Work></rdf:RDF></metadata><defs
     id="defs6"><clipPath
       clipPathUnits="userSpaceOnUse"
       id="clipPath22"><path
         d="M 14.4,14.4 H 489.6 V 489.6 H 14.4 Z"
         id="path20"
         inkscape:connector-curvature="0" /></clipPath></defs><sodipodi:namedview
     pagecolor="#ffffff"
     bordercolor="#666666"
     borderopacity="1"
     objecttolerance="10"
     gridtolerance="10"
     guidetolerance="10"
     inkscape:pageopacity="0"
     inkscape:pageshadow="2"
     inkscape:window-width="1363"
     inkscape:window-height="841"
     id="namedview4"
     showgrid="false"
     inkscape:zoom="0.49665833"
     inkscape:cx="336.18377"
     inkscape:cy="161.71462"
     inkscape:window-x="0"
     inkscape:window-y="0"
     inkscape:window-maximized="0"
     inkscape:current-layer="g10" /><g
     id="g10"
     inkscape:groupmode="layer"
     inkscape:label="venn_LBP_FCN2"
     transform="matrix(1.3333333,0,0,-1.3333333,0,500)"><rect
       style="opacity:1;fill:#f0f0f0;fill-opacity:1;fill-rule:nonzero;stroke:#000000;stroke-width:1.5;stroke-linejoin:miter;stroke-miterlimit:4;stroke-dasharray:4.50000011, 1.50000004;stroke-dashoffset:0;stroke-opacity:1"
       id="rect1964"
       width="249.16527"
       height="115.52206"
       x="28.691753"
       y="-120.05234"
       transform="scale(1,-1)"
       ry="4.5302801" /><g
       id="g12"
       transform="translate(-101.1762,-42.28259)" /><g
       id="g14"
       transform="translate(-101.1762,-42.28259)" /><path
       d="m 178.3238,209.71741 -0.01,1.44 -0.04,1.44 -0.06,1.44 -0.09,1.43 -0.11,1.44 -0.14,1.43 -0.16,1.43 -0.19,1.43 -0.22,1.43 -0.23,1.42 -0.27,1.41 -0.28,1.41 -0.31,1.41 -0.34,1.4 -0.36,1.39 -0.39,1.39 -0.4,1.38 -0.44,1.37 -0.45,1.37 -0.49,1.36 -0.5,1.35 -0.53,1.34 -0.55,1.33 -0.57,1.32 -0.6,1.31 -0.62,1.3 -0.64,1.28 -0.67,1.28 -0.68,1.27 -0.71,1.25 -0.73,1.24 -0.76,1.23 -0.77,1.21 -0.79,1.2 -0.82,1.19 -0.84,1.17 -0.85,1.16 -0.88,1.14 -0.9,1.13 -0.91,1.11 -0.94,1.09 -0.95,1.08 -0.97,1.06 -0.99,1.05 -1.01,1.03 -1.03,1.01 -1.05,0.99 -1.06,0.97 -1.08,0.95 -1.09,0.94 -1.11,0.91 -1.13,0.9 -1.14,0.88 -1.16,0.85 -1.17,0.84 -1.19,0.82 -1.2,0.79 -1.21,0.77 -1.23,0.76 -1.24,0.73 -1.25,0.71 -1.27,0.68 -1.28,0.67 -1.28,0.64 -1.3,0.62 -1.31,0.6 -1.32,0.57 -1.33,0.55 -1.34,0.53 -1.35,0.5 -1.36,0.49 -1.37,0.45 -1.37,0.44 -1.38,0.4 -1.39,0.39 -1.39,0.36 -1.4,0.34 -1.41,0.31 -1.41,0.28 -1.41,0.27 -1.42,0.23 -1.43,0.22 -1.43,0.19 -1.43,0.16 -1.43,0.14 -1.44,0.11 -1.43,0.09 -1.44,0.06 -1.44,0.04 -1.44,0.01 -1.44,-0.01 -1.44,-0.04 -1.44,-0.06 -1.43,-0.09 -1.44,-0.11 -1.43,-0.14 -1.43,-0.16 -1.43,-0.19 -1.43,-0.22 -1.419997,-0.23 -1.41,-0.27 -1.41,-0.28 -1.41,-0.31 -1.4,-0.34 -1.39,-0.36 -1.39,-0.39 -1.38,-0.4 -1.37,-0.44 -1.37,-0.45 -1.36,-0.49 -1.35,-0.5 -1.34,-0.53 -1.33,-0.55 -1.32,-0.57 -1.31,-0.6 -1.3,-0.62 -1.28,-0.64 -1.28,-0.67 -1.27,-0.68 -1.25,-0.71 -1.24,-0.73 -1.23,-0.76 -1.21,-0.77 -1.2,-0.79 -1.19,-0.82 -1.17,-0.84 -1.16,-0.85 -1.14,-0.88 -1.13,-0.9 -1.11,-0.91 -1.09,-0.94 -1.08,-0.95 -1.06,-0.97 -1.05,-0.99 -1.03,-1.01 -1.01,-1.03 -0.99,-1.05 -0.97,-1.06 -0.95,-1.08 -0.94,-1.09 -0.91,-1.11 -0.9,-1.13 -0.88,-1.14 -0.85,-1.16 -0.84,-1.17 -0.82,-1.19 -0.79,-1.2 -0.77,-1.21 -0.76,-1.23 -0.73,-1.24 -0.71,-1.25 -0.68,-1.27 -0.67,-1.28 -0.64,-1.28 -0.62,-1.3 -0.6,-1.31 -0.57,-1.32 -0.55,-1.33 -0.53,-1.34 -0.5,-1.35 -0.49,-1.36 -0.45,-1.37 -0.44,-1.37 -0.4,-1.38 -0.39,-1.39 -0.36,-1.39 -0.34,-1.4 -0.31,-1.41 -0.28,-1.41 -0.27,-1.41 -0.23,-1.42 -0.22,-1.43 -0.19,-1.43 -0.16,-1.43 -0.14,-1.43 -0.11,-1.44 -0.09,-1.43 -0.06,-1.44 -0.04,-1.44 -0.01,-1.44 0.01,-1.44 0.04,-1.44 0.06,-1.44 0.09,-1.43 0.11,-1.44 0.14,-1.43 0.16,-1.43 0.19,-1.43 0.22,-1.43 0.23,-1.42 0.27,-1.41 0.28,-1.41 0.31,-1.41 0.34,-1.4 0.36,-1.39 0.39,-1.39 0.4,-1.38 0.44,-1.37 0.45,-1.37 0.49,-1.36 0.5,-1.35 0.53,-1.34 0.55,-1.33 0.57,-1.32 0.6,-1.31 0.62,-1.3 0.64,-1.28 0.67,-1.28 0.68,-1.27 0.71,-1.25 0.73,-1.24 0.76,-1.23 0.77,-1.21 0.79,-1.2 0.82,-1.19 0.84,-1.17 0.85,-1.16 0.88,-1.14 0.9,-1.13 0.91,-1.11 0.94,-1.09 0.95,-1.08 0.97,-1.06 0.99,-1.05 1.01,-1.03 1.03,-1.01 1.05,-0.99 1.06,-0.97 1.08,-0.95 1.09,-0.94 1.11,-0.91 1.13,-0.9 1.14,-0.88 1.16,-0.85 1.17,-0.84 1.19,-0.82 1.2,-0.79 1.21,-0.77 1.23,-0.76 1.24,-0.73 1.25,-0.71 1.27,-0.68 1.28,-0.67 1.28,-0.64 1.3,-0.62 1.31,-0.6 1.32,-0.57 1.33,-0.55 1.34,-0.53 1.35,-0.5 1.36,-0.49 1.37,-0.45 1.37,-0.44 1.38,-0.4 1.39,-0.39 1.39,-0.36 1.4,-0.34 1.41,-0.31 1.41,-0.28 1.41,-0.27 1.419997,-0.23 1.43,-0.22 1.43,-0.19 1.43,-0.16 1.43,-0.14 1.44,-0.11 1.43,-0.09 1.44,-0.06 1.44,-0.04 1.44,-0.01 1.44,0.01 1.44,0.04 1.44,0.06 1.43,0.09 1.44,0.11 1.43,0.14 1.43,0.16 1.43,0.19 1.43,0.22 1.42,0.23 1.41,0.27 1.41,0.28 1.41,0.31 1.4,0.34 1.39,0.36 1.39,0.39 1.38,0.4 1.37,0.44 1.37,0.45 1.36,0.49 1.35,0.5 1.34,0.53 1.33,0.55 1.32,0.57 1.31,0.6 1.3,0.62 1.28,0.64 1.28,0.67 1.27,0.68 1.25,0.71 1.24,0.73 1.23,0.76 1.21,0.77 1.2,0.79 1.19,0.82 1.17,0.84 1.16,0.85 1.14,0.88 1.13,0.9 1.11,0.91 1.09,0.94 1.08,0.95 1.06,0.97 1.05,0.99 1.03,1.01 1.01,1.03 0.99,1.05 0.97,1.06 0.95,1.08 0.94,1.09 0.91,1.11 0.9,1.13 0.88,1.14 0.85,1.16 0.84,1.17 0.82,1.19 0.79,1.2 0.77,1.21 0.76,1.23 0.73,1.24 0.71,1.25 0.68,1.27 0.67,1.28 0.64,1.28 0.62,1.3 0.6,1.31 0.57,1.32 0.55,1.33 0.53,1.34 0.5,1.35 0.49,1.36 0.45,1.37 0.44,1.37 0.4,1.38 0.39,1.39 0.36,1.39 0.34,1.4 0.31,1.41 0.28,1.41 0.27,1.41 0.23,1.42 0.22,1.43 0.19,1.43 0.16,1.43 0.14,1.43 0.11,1.44 0.09,1.43 0.06,1.44 0.04,1.44 z"
       style="fill:#4daf4a;fill-opacity:0.05899999;fill-rule:nonzero;stroke:#4daf4a;stroke-width:0.75;stroke-linecap:round;stroke-linejoin:round;stroke-miterlimit:10;stroke-dasharray:none;stroke-opacity:1"
       id="path24"
       inkscape:connector-curvature="0" /><text
       transform="scale(1,-1)"
       style="font-variant:normal;font-weight:normal;font-size:18px;font-family:Helvetica;-inkscape-font-specification:Helvetica;writing-mode:lr-tb;fill:#000000;fill-opacity:1;fill-rule:nonzero;stroke:none"
       id="text28"
       x="67.813812"
       y="-302.25742"><tspan
         x="67.813812 77.821808 89.827805"
         y="-302.25742"
         sodipodi:role="line"
         id="tspan26">LBP</tspan></text>
<path
       d="m 288.3238,209.71741 -0.01,1.44 -0.04,1.44 -0.06,1.44 -0.09,1.43 -0.11,1.44 -0.14,1.43 -0.16,1.43 -0.19,1.43 -0.22,1.43 -0.23,1.42 -0.27,1.41 -0.28,1.41 -0.31,1.41 -0.34,1.4 -0.36,1.39 -0.39,1.39 -0.4,1.38 -0.44,1.37 -0.45,1.37 -0.49,1.36 -0.5,1.35 -0.53,1.34 -0.55,1.33 -0.57,1.32 -0.6,1.31 -0.62,1.3 -0.64,1.28 -0.67,1.28 -0.68,1.27 -0.71,1.25 -0.73,1.24 -0.76,1.23 -0.77,1.21 -0.79,1.2 -0.82,1.19 -0.84,1.17 -0.85,1.16 -0.88,1.14 -0.9,1.13 -0.91,1.11 -0.94,1.09 -0.95,1.08 -0.97,1.06 -0.99,1.05 -1.01,1.03 -1.03,1.01 -1.05,0.99 -1.06,0.97 -1.08,0.95 -1.09,0.94 -1.11,0.91 -1.13,0.9 -1.14,0.88 -1.16,0.85 -1.17,0.84 -1.19,0.82 -1.2,0.79 -1.21,0.77 -1.23,0.76 -1.24,0.73 -1.25,0.71 -1.27,0.68 -1.28,0.67 -1.28,0.64 -1.3,0.62 -1.31,0.6 -1.32,0.57 -1.33,0.55 -1.34,0.53 -1.35,0.5 -1.36,0.49 -1.37,0.45 -1.37,0.44 -1.38,0.4 -1.39,0.39 -1.39,0.36 -1.4,0.34 -1.41,0.31 -1.41,0.28 -1.41,0.27 -1.42,0.23 -1.43,0.22 -1.43,0.19 -1.43,0.16 -1.43,0.14 -1.44,0.11 -1.43,0.09 -1.44,0.06 -1.44,0.04 -1.44,0.01 -1.44,-0.01 -1.44,-0.04 -1.44,-0.06 -1.43,-0.09 -1.44,-0.11 -1.43,-0.14 -1.43,-0.16 -1.43,-0.19 -1.43,-0.22 -1.42,-0.23 -1.41,-0.27 -1.41,-0.28 -1.41,-0.31 -1.4,-0.34 -1.39,-0.36 -1.39,-0.39 -1.38,-0.4 -1.37,-0.44 -1.37,-0.45 -1.36,-0.49 -1.35,-0.5 -1.34,-0.53 -1.33,-0.55 -1.32,-0.57 -1.31,-0.6 -1.3,-0.62 -1.28,-0.64 -1.28,-0.67 -1.27,-0.68 -1.25,-0.71 -1.24,-0.73 -1.23,-0.76 -1.21,-0.77 -1.2,-0.79 -1.19,-0.82 -1.17,-0.84 -1.16,-0.85 -1.14,-0.88 -1.13,-0.9 -1.11,-0.91 -1.09,-0.94 -1.08,-0.95 -1.06,-0.97 -1.05,-0.99 -1.03,-1.01 -1.01,-1.03 -0.99,-1.05 -0.97,-1.06 -0.95,-1.08 -0.94,-1.09 -0.91,-1.11 -0.9,-1.13 -0.88,-1.14 -0.85,-1.16 -0.84,-1.17 -0.82,-1.19 -0.79,-1.2 -0.77,-1.21 -0.76,-1.23 -0.73,-1.24 -0.71,-1.25 -0.68,-1.27 -0.67,-1.28 -0.64,-1.28 -0.62,-1.3 -0.6,-1.31 -0.57,-1.32 -0.55,-1.33 -0.53,-1.34 -0.5,-1.35 -0.49,-1.36 -0.45,-1.37 -0.44,-1.37 -0.4,-1.38 -0.39,-1.39 -0.36,-1.39 -0.34,-1.4 -0.31,-1.41 -0.28,-1.41 -0.27,-1.41 -0.23,-1.42 -0.22,-1.43 -0.19,-1.43 -0.16,-1.43 -0.14,-1.43 -0.11,-1.44 -0.09,-1.43 -0.06,-1.44 -0.04,-1.44 -0.01,-1.44 0.01,-1.44 0.04,-1.44 0.06,-1.44 0.09,-1.43 0.11,-1.44 0.14,-1.43 0.16,-1.43 0.19,-1.43 0.22,-1.43 0.23,-1.42 0.27,-1.41 0.28,-1.41 0.31,-1.41 0.34,-1.4 0.36,-1.39 0.39,-1.39 0.4,-1.38 0.44,-1.37 0.45,-1.37 0.49,-1.36 0.5,-1.35 0.53,-1.34 0.55,-1.33 0.57,-1.32 0.6,-1.31 0.62,-1.3 0.64,-1.28 0.67,-1.28 0.68,-1.27 0.71,-1.25 0.73,-1.24 0.76,-1.23 0.77,-1.21 0.79,-1.2 0.82,-1.19 0.84,-1.17 0.85,-1.16 0.88,-1.14 0.9,-1.13 0.91,-1.11 0.94,-1.09 0.95,-1.08 0.97,-1.06 0.99,-1.05 1.01,-1.03 1.03,-1.01 1.05,-0.99 1.06,-0.97 1.08,-0.95 1.09,-0.94 1.11,-0.91 1.13,-0.9 1.14,-0.88 1.16,-0.85 1.17,-0.84 1.19,-0.82 1.2,-0.79 1.21,-0.77 1.23,-0.76 1.24,-0.73 1.25,-0.71 1.27,-0.68 1.28,-0.67 1.28,-0.64 1.3,-0.62 1.31,-0.6 1.32,-0.57 1.33,-0.55 1.34,-0.53 1.35,-0.5 1.36,-0.49 1.37,-0.45 1.37,-0.44 1.38,-0.4 1.39,-0.39 1.39,-0.36 1.4,-0.34 1.41,-0.31 1.41,-0.28 1.41,-0.27 1.42,-0.23 1.43,-0.22 1.43,-0.19 1.43,-0.16 1.43,-0.14 1.44,-0.11 1.43,-0.09 1.44,-0.06 1.44,-0.04 1.44,-0.01 1.44,0.01 1.44,0.04 1.44,0.06 1.43,0.09 1.44,0.11 1.43,0.14 1.43,0.16 1.43,0.19 1.43,0.22 1.42,0.23 1.41,0.27 1.41,0.28 1.41,0.31 1.4,0.34 1.39,0.36 1.39,0.39 1.38,0.4 1.37,0.44 1.37,0.45 1.36,0.49 1.35,0.5 1.34,0.53 1.33,0.55 1.32,0.57 1.31,0.6 1.3,0.62 1.28,0.64 1.28,0.67 1.27,0.68 1.25,0.71 1.24,0.73 1.23,0.76 1.21,0.77 1.2,0.79 1.19,0.82 1.17,0.84 1.16,0.85 1.14,0.88 1.13,0.9 1.11,0.91 1.09,0.94 1.08,0.95 1.06,0.97 1.05,0.99 1.03,1.01 1.01,1.03 0.99,1.05 0.97,1.06 0.95,1.08 0.94,1.09 0.91,1.11 0.9,1.13 0.88,1.14 0.85,1.16 0.84,1.17 0.82,1.19 0.79,1.2 0.77,1.21 0.76,1.23 0.73,1.24 0.71,1.25 0.68,1.27 0.67,1.28 0.64,1.28 0.62,1.3 0.6,1.31 0.57,1.32 0.55,1.33 0.53,1.34 0.5,1.35 0.49,1.36 0.45,1.37 0.44,1.37 0.4,1.38 0.39,1.39 0.36,1.39 0.34,1.4 0.31,1.41 0.28,1.41 0.27,1.41 0.23,1.42 0.22,1.43 0.19,1.43 0.16,1.43 0.14,1.43 0.11,1.44 0.09,1.43 0.06,1.44 0.04,1.44 z"
       style="fill:#377eb8;fill-opacity:0.05899999;fill-rule:nonzero;stroke:#377eb8;stroke-width:0.75;stroke-linecap:round;stroke-linejoin:round;stroke-miterlimit:10;stroke-dasharray:none;stroke-opacity:1"
       id="path30"
       inkscape:connector-curvature="0" /><text
       transform="scale(1,-1)"
       style="font-variant:normal;font-weight:normal;font-size:18px;font-family:Helvetica;-inkscape-font-specification:Helvetica;writing-mode:lr-tb;fill:#000000;fill-opacity:1;fill-rule:nonzero;stroke:none"
       id="text34"
       x="193.32381"
       y="-302.25742"><tspan
         x="193.32381 204.32179 217.31779 230.3138"
         y="-302.25742"
         sodipodi:role="line"
         id="tspan32">FCN2</tspan></text>
<text
       transform="scale(1,-1)"
       style="font-variant:normal;font-weight:normal;font-size:18px;font-family:Helvetica;-inkscape-font-specification:Helvetica;writing-mode:lr-tb;fill:#000000;fill-opacity:1;fill-rule:nonzero;stroke:none"
       id="text44"
       x="218.3138"
       y="-208.7574"><tspan
         x="218.3138 228.32179 238.32982"
         y="-208.7574"
         sodipodi:role="line"
         id="tspan42">480</tspan></text>
<text
       transform="scale(1,-1)"
       style="font-variant:normal;font-weight:normal;font-size:18px;font-family:Helvetica;-inkscape-font-specification:Helvetica;writing-mode:lr-tb;fill:#000000;fill-opacity:1;fill-rule:nonzero;stroke:none"
       id="text48"
       x="53.313812"
       y="-208.7574"><tspan
         x="53.313812 63.321808 73.329803"
         y="-208.7574"
         sodipodi:role="line"
         id="tspan46">466</tspan></text>
<text
       transform="scale(1,-1)"
       style="font-variant:normal;font-weight:normal;font-size:18px;font-family:Helvetica;-inkscape-font-specification:Helvetica;writing-mode:lr-tb;fill:#000000;fill-opacity:1;fill-rule:nonzero;stroke:none"
       id="text52"
       x="140.81381"
       y="-208.7574"><tspan
         x="140.81381 150.82181"
         y="-208.7574"
         sodipodi:role="line"
         id="tspan50">43</tspan></text>
<text
       xml:space="preserve"
       style="font-style:normal;font-variant:normal;font-weight:normal;font-stretch:normal;font-size:8px;line-height:125%;font-family:Helvetica;-inkscape-font-specification:Helvetica;letter-spacing:0px;word-spacing:0px;fill:#000000;fill-opacity:1;stroke:none;stroke-width:0.75px;stroke-linecap:butt;stroke-linejoin:miter;stroke-opacity:1"
       x="84.620422"
       y="27.33345"
       id="text864"
       transform="scale(1,-1)"><tspan
         sodipodi:role="line"
         id="tspan862"
         x="84.620422"
         y="34.855743"
         style="stroke-width:0.75px"></tspan></text>
<flowRoot
       xml:space="preserve"
       id="flowRoot952"
       style="font-style:normal;font-variant:normal;font-weight:normal;font-stretch:normal;font-size:10.66666698px;line-height:125%;font-family:Helvetica;-inkscape-font-specification:Helvetica;letter-spacing:0px;word-spacing:0px;fill:#000000;fill-opacity:1;stroke:none;stroke-width:1px;stroke-linecap:butt;stroke-linejoin:miter;stroke-opacity:1"
       transform="matrix(0.75000002,0,0,-0.75000002,106.46153,652.74412)"><flowRegion
         id="flowRegion954"><rect
           id="rect956"
           width="353.05515"
           height="164.83167"
           x="-99.661018"
           y="717.55933" /></flowRegion><flowPara
         id="flowPara1044"
         style="font-style:italic;font-size:18.66666603px">Traf4, F12, Arhgef19, Zyx, Lrp1, Bri3, Upf1, mt-Te, Col18a1, Endog, Rxra, Pkdcc, Man2b2, B4galnt1, Ssb, Tfr2, Acsf2, Cebpb, Sugt1, Eloc, Lrp3, Zer1, Furin, Sept7, Lipo3, Cox6c, Pitpnm2, Rin3, Slc29a1, Mospd3, Ptprf, Krcc1, Dvl1, Rps24-ps3, Gaa, Eapp, Pnkd, Agmat, Tns2, Ncor2, mt-Nd1, Cyp8b1, Mtif2</flowPara><flowPara
         id="flowPara1912"
         style="font-style:italic;font-size:18.66666603px" /></flowRoot><path
       style="fill:none;fill-rule:evenodd;stroke:#000000;stroke-width:1.5;stroke-linecap:butt;stroke-linejoin:miter;stroke-miterlimit:4;stroke-dasharray:none;stroke-opacity:1"
       d="m 129.86795,120.80739 15.85597,60.40371"
       id="path1966"
       inkscape:connector-curvature="0" /></g></svg>