<?xml version="1.0" encoding="UTF-8" standalone="no"?>
<!-- Created with Inkscape (http://www.inkscape.org/) -->

<svg
   xmlns:dc="http://purl.org/dc/elements/1.1/"
   xmlns:cc="http://creativecommons.org/ns#"
   xmlns:rdf="http://www.w3.org/1999/02/22-rdf-syntax-ns#"
   xmlns:svg="http://www.w3.org/2000/svg"
   xmlns="http://www.w3.org/2000/svg"
   xmlns:sodipodi="http://sodipodi.sourceforge.net/DTD/sodipodi-0.dtd"
   xmlns:inkscape="http://www.inkscape.org/namespaces/inkscape"
   version="1.1"
   id="svg2"
   xml:space="preserve"
   width="400"
   height="400"
   viewBox="0 0 400 400"
   sodipodi:docname="venn_kegg_LBP_FCN2.svg"
   inkscape:version="0.92.2 5c3e80d, 2017-08-06"><metadata
     id="metadata8"><rdf:RDF><cc:Work
         rdf:about=""><dc:format>image/svg+xml</dc:format><dc:type
           rdf:resource="http://purl.org/dc/dcmitype/StillImage" /><dc:title></dc:title></cc:Work></rdf:RDF></metadata><defs
     id="defs6"><clipPath
       clipPathUnits="userSpaceOnUse"
       id="clipPath22"><path
         d="M 14.4,14.4 H 489.6 V 489.6 H 14.4 Z"
         id="path20"
         inkscape:connector-curvature="0" /></clipPath><clipPath
       id="clipPath951"
       clipPathUnits="userSpaceOnUse"><path
         inkscape:connector-curvature="0"
         id="path949"
         d="m 57.6,230.4 h 57.6 V 331.2 H 57.6 Z" /></clipPath></defs><sodipodi:namedview
     pagecolor="#ffffff"
     bordercolor="#666666"
     borderopacity="1"
     objecttolerance="10"
     gridtolerance="10"
     guidetolerance="10"
     inkscape:pageopacity="0"
     inkscape:pageshadow="2"
     inkscape:window-width="1363"
     inkscape:window-height="841"
     id="namedview4"
     showgrid="false"
     inkscape:zoom="0.99331666"
     inkscape:cx="301.7626"
     inkscape:cy="169.70066"
     inkscape:window-x="0"
     inkscape:window-y="0"
     inkscape:window-maximized="0"
     inkscape:current-layer="g10"
     inkscape:snap-global="false" /><g
     id="g10"
     inkscape:groupmode="layer"
     inkscape:label="venn_LBP_FCN2"
     transform="matrix(1.3333333,0,0,-1.3333333,0,400)"><rect
       style="opacity:1;fill:#f0f0f0;fill-opacity:1;fill-rule:nonzero;stroke:#000000;stroke-width:0.75;stroke-linejoin:miter;stroke-miterlimit:4;stroke-dasharray:2.25000006, 0.75000002;stroke-dashoffset:0;stroke-opacity:1"
       id="rect1964"
       width="157.02528"
       height="128.75677"
       x="8.7835798"
       y="-137.33626"
       transform="scale(1,-1)"
       ry="2.515887" /><g
       id="g12"
       transform="translate(-105.70648,-111.74684)" /><g
       id="g14"
       transform="translate(-105.70648,-111.74684)" /><path
       d="m 100.40302,187.13168 -0.006,0.7997 -0.0222,0.7997 -0.0333,0.79971 -0.05,0.79415 -0.0611,0.7997 -0.0777,0.79415 -0.0888,0.79415 -0.105487,0.79415 -0.12215,0.79415 -0.1277,0.78859 -0.1499,0.78304 -0.15546,0.78305 -0.17212,0.78304 -0.18877,0.77749 -0.19987,0.77193 -0.21653,0.77194 -0.22209,0.76638 -0.24429,0.76083 -0.24984,0.76083 -0.27206,0.75527 -0.2776,0.74972 -0.29426,0.74417 -0.30537,0.73861 -0.31647,0.73307 -0.33312,0.7275 -0.34423,0.72196 -0.355336,0.71084 -0.37199,0.71085 -0.377542,0.70529 -0.394198,0.69419 -0.405303,0.68863 -0.421959,0.68308 -0.427511,0.67198 -0.438615,0.66641 -0.455272,0.66087 -0.466375,0.64976 -0.471928,0.6442 -0.488584,0.6331 -0.499688,0.62755 -0.50524,0.61643 -0.521897,0.60533 -0.527449,0.59978 -0.538552,0.58867 -0.549658,0.58312 -0.560761,0.57201 -0.571865,0.5609 -0.58297,0.54979 -0.588521,0.53869 -0.599626,0.52759 -0.605178,0.52202 -0.616282,0.50537 -0.627386,0.49982 -0.632939,0.4887 -0.644042,0.47205 -0.649595,0.46649 -0.660699,0.45539 -0.666251,0.43872 -0.671803,0.42762 -0.682907,0.42207 -0.688459,0.4054 -0.694012,0.3943 -0.705115,0.37764 -0.710668,0.37208 -0.710668,0.35543 -0.721772,0.34431 -0.727323,0.33321 -0.732876,0.31655 -0.738429,0.30544 -0.74398,0.29434 -0.749532,0.27767 -0.755084,0.27212 -0.760637,0.24991 -0.760636,0.24435 -0.766189,0.22214 -0.771741,0.21659 -0.77174,0.19993 -0.777293,0.18881 -0.782845,0.17216 -0.782845,0.1555 -0.782845,0.14995 -0.788397,0.12773 -0.793949,0.12217 -0.793949,0.10552 -0.793949,0.0889 -0.793949,0.0777 -0.799501,0.0611 -0.793949,0.05 -0.799501,0.0333 -0.799501,0.0222 -0.799501,0.006 -0.799501,-0.006 -0.799501,-0.0222 -0.799502,-0.0333 -0.793949,-0.05 -0.799501,-0.0611 -0.793949,-0.0777 -0.793949,-0.0889 -0.793949,-0.10552 -0.793949,-0.12217 -0.788395,-0.12773 -0.782845,-0.14995 -0.782845,-0.1555 -0.782845,-0.17216 -0.777292,-0.18881 -0.771741,-0.19993 -0.771741,-0.21659 -0.766188,-0.22214 -0.760637,-0.24435 -0.760636,-0.24991 -0.755085,-0.27212 -0.749532,-0.27767 -0.74398,-0.29434 -0.738428,-0.30544 -0.732876,-0.31655 -0.727324,-0.33321 -0.721772,-0.34431 -0.710668,-0.35543 -0.710667,-0.37208 -0.705116,-0.37764 -0.694011,-0.3943 -0.68846,-0.4054 -0.682907,-0.42207 -0.671803,-0.42762 -0.666251,-0.43872 -0.660699,-0.45539 -0.649594,-0.46649 -0.644043,-0.47205 -0.632938,-0.4887 -0.627387,-0.49982 -0.616282,-0.50537 -0.605178,-0.52202 -0.599625,-0.52759 -0.588522,-0.53869 -0.58297,-0.54979 -0.571865,-0.5609 -0.560761,-0.57201 -0.549657,-0.58312 -0.538553,-0.58867 -0.527449,-0.59978 -0.521896,-0.60533 -0.505241,-0.61643 -0.499688,-0.62755 -0.488584,-0.6331 -0.471928,-0.6442 -0.466375,-0.64976 -0.455272,-0.66087 -0.438615,-0.66641 -0.427511,-0.67198 -0.421959,-0.68308 -0.405302,-0.68863 -0.394199,-0.69419 -0.377542,-0.70529 -0.37199,-0.71085 -0.355334,-0.71084 -0.34423,-0.72196 -0.333125,-0.7275 -0.316469,-0.73307 -0.305365,-0.73861 -0.294261,-0.74417 -0.277605,-0.74972 -0.272052,-0.75527 -0.249844,-0.76083 -0.244292,-0.76083 -0.222084,-0.76638 -0.216531,-0.77194 -0.199876,-0.77193 -0.1887715,-0.77749 -0.172115,-0.78304 -0.155458,-0.78305 -0.149907,-0.78304 -0.127698,-0.78859 -0.122146,-0.79415 -0.10549,-0.79415 -0.08883,-0.79415 -0.07773,-0.79415 -0.06107,-0.7997 -0.04997,-0.79415 -0.03331,-0.79971 -0.02221,-0.7997 -0.0056,-0.7997 0.0056,-0.7997 0.02221,-0.79971 0.03331,-0.7997 0.04997,-0.79415 0.06107,-0.7997 0.07773,-0.79415 0.08883,-0.79415 0.10549,-0.79415 0.122146,-0.79415 0.127698,-0.78859 0.149907,-0.78305 0.155458,-0.78304 0.172115,-0.78304 0.1887715,-0.77749 0.199876,-0.77193 0.216531,-0.77194 0.222084,-0.76638 0.244292,-0.76083 0.249844,-0.76083 0.272052,-0.75527 0.277605,-0.74972 0.294261,-0.74417 0.305365,-0.73862 0.316469,-0.73306 0.333125,-0.7275 0.34423,-0.72196 0.355334,-0.71085 0.37199,-0.71084 0.377542,-0.7053 0.394199,-0.69418 0.405302,-0.68864 0.421959,-0.68307 0.427511,-0.67198 0.438615,-0.66642 0.455272,-0.66086 0.466375,-0.64976 0.471928,-0.6442 0.488584,-0.6331 0.499688,-0.62755 0.505241,-0.61643 0.521896,-0.60534 0.527449,-0.59977 0.538553,-0.58867 0.549657,-0.58312 0.560761,-0.57201 0.571865,-0.5609 0.58297,-0.5498 0.588522,-0.53869 0.599625,-0.52758 0.605178,-0.52203 0.616282,-0.50536 0.627387,-0.49982 0.632938,-0.4887 0.644043,-0.47205 0.649594,-0.46649 0.660699,-0.45539 0.666251,-0.43873 0.671803,-0.42762 0.682907,-0.42206 0.68846,-0.40541 0.694011,-0.39429 0.705116,-0.37764 0.710667,-0.37208 0.710668,-0.35543 0.721772,-0.34431 0.727324,-0.33321 0.732876,-0.31655 0.738428,-0.30545 0.74398,-0.29433 0.749532,-0.27767 0.755085,-0.27213 0.760636,-0.2499 0.760637,-0.24436 0.766188,-0.22214 0.771741,-0.21658 0.771741,-0.19993 0.777292,-0.18882 0.782845,-0.17215 0.782845,-0.1555 0.782845,-0.14995 0.788395,-0.12773 0.793949,-0.12217 0.793949,-0.10552 0.793949,-0.0889 0.793949,-0.0777 0.799501,-0.0611 0.793949,-0.05 0.799502,-0.0333 0.799501,-0.0222 0.799501,-0.006 0.799501,0.006 0.799501,0.0222 0.799501,0.0333 0.793949,0.05 0.799501,0.0611 0.793949,0.0777 0.793949,0.0889 0.793949,0.10552 0.793949,0.12217 0.788397,0.12773 0.782845,0.14995 0.782845,0.1555 0.782845,0.17215 0.777293,0.18882 0.77174,0.19993 0.771741,0.21658 0.766189,0.22214 0.760636,0.24436 0.760637,0.2499 0.755084,0.27213 0.749532,0.27767 0.74398,0.29433 0.738429,0.30545 0.732876,0.31655 0.727323,0.33321 0.721772,0.34431 0.710668,0.35543 0.710668,0.37208 0.705115,0.37764 0.694012,0.39429 0.688459,0.40541 0.682907,0.42206 0.671803,0.42762 0.666251,0.43873 0.660699,0.45539 0.649595,0.46649 0.644042,0.47205 0.632939,0.4887 0.627386,0.49982 0.616282,0.50536 0.605178,0.52203 0.599626,0.52758 0.588521,0.53869 0.58297,0.5498 0.571865,0.5609 0.560761,0.57201 0.549658,0.58312 0.538552,0.58867 0.527449,0.59977 0.521897,0.60534 0.50524,0.61643 0.499688,0.62755 0.488584,0.6331 0.471928,0.6442 0.466375,0.64976 0.455272,0.66086 0.438615,0.66642 0.427511,0.67198 0.421959,0.68307 0.405303,0.68864 0.394198,0.69418 0.377542,0.7053 0.37199,0.71084 0.355336,0.71085 0.34423,0.72196 0.33312,0.7275 0.31647,0.73306 0.30537,0.73862 0.29426,0.74417 0.2776,0.74972 0.27206,0.75527 0.24984,0.76083 0.24429,0.76083 0.22209,0.76638 0.21653,0.77194 0.19987,0.77193 0.18877,0.77749 0.17212,0.78304 0.15546,0.78304 0.1499,0.78305 0.1277,0.78859 0.12215,0.79415 0.105487,0.79415 0.0888,0.79415 0.0777,0.79415 0.0611,0.7997 0.05,0.79415 0.0333,0.7997 0.0222,0.79971 z"
       style="fill:#4daf4a;fill-opacity:0.05899999;fill-rule:nonzero;stroke:#4daf4a;stroke-width:0.75;stroke-linecap:round;stroke-linejoin:round;stroke-miterlimit:10;stroke-dasharray:none;stroke-opacity:1"
       id="path24"
       inkscape:connector-curvature="0" /><text
       transform="scale(0.99987392,-1.0001261)"
       style="font-variant:normal;font-weight:normal;font-size:9.99502373px;font-family:Helvetica;-inkscape-font-specification:Helvetica;writing-mode:lr-tb;fill:#000000;fill-opacity:1;fill-rule:nonzero;stroke:none;stroke-width:1"
       id="text28"
       x="39.051796"
       y="-238.49364"><tspan
         sodipodi:role="line"
         id="tspan26"
         style="font-size:12px;stroke-width:1"
         x="39.051796"
         y="-238.49364">Lbp</tspan></text>
<path
       d="m 161.47603,187.13168 -0.006,0.7997 -0.0222,0.7997 -0.0333,0.79971 -0.05,0.79415 -0.0611,0.7997 -0.0777,0.79415 -0.0888,0.79415 -0.10549,0.79415 -0.12215,0.79415 -0.12769,0.78859 -0.14991,0.78304 -0.15546,0.78305 -0.17211,0.78304 -0.18878,0.77749 -0.19987,0.77193 -0.21653,0.77194 -0.22209,0.76638 -0.24429,0.76083 -0.24984,0.76083 -0.27205,0.75527 -0.27761,0.74972 -0.29426,0.74417 -0.30537,0.73861 -0.31646,0.73307 -0.33313,0.7275 -0.34423,0.72196 -0.35533,0.71084 -0.37199,0.71085 -0.37755,0.70529 -0.39419,0.69419 -0.40531,0.68863 -0.42196,0.68308 -0.42751,0.67198 -0.43861,0.66641 -0.45527,0.66087 -0.46638,0.64976 -0.47193,0.6442 -0.48858,0.6331 -0.49969,0.62755 -0.50524,0.61643 -0.5219,0.60533 -0.52744,0.59978 -0.53856,0.58867 -0.54965,0.58312 -0.56077,0.57201 -0.57186,0.5609 -0.58297,0.54979 -0.58852,0.53869 -0.59963,0.52759 -0.60518,0.52202 -0.61628,0.50537 -0.62738,0.49982 -0.63294,0.4887 -0.64405,0.47205 -0.64959,0.46649 -0.6607,0.45539 -0.66625,0.43872 -0.6718,0.42762 -0.68291,0.42207 -0.68846,0.4054 -0.69401,0.3943 -0.70512,0.37764 -0.71066,0.37208 -0.71067,0.35543 -0.72177,0.34431 -0.72733,0.33321 -0.73287,0.31655 -0.73843,0.30544 -0.74398,0.29434 -0.74953,0.27767 -0.75509,0.27212 -0.76063,0.24991 -0.76064,0.24435 -0.76619,0.22214 -0.77174,0.21659 -0.77174,0.19993 -0.77729,0.18881 -0.78285,0.17216 -0.78284,0.1555 -0.78285,0.14995 -0.7884,0.12773 -0.79394,0.12217 -0.79395,0.10552 -0.79395,0.0889 -0.79395,0.0777 -0.7995,0.0611 -0.79395,0.05 -0.7995,0.0333 -0.7995,0.0222 -0.79951,0.006 -0.7995,-0.006 -0.7995,-0.0222 -0.7995,-0.0333 -0.79395,-0.05 -0.7995,-0.0611 -0.79395,-0.0777 -0.79395,-0.0889 -0.79395,-0.10552 -0.79394,-0.12217 -0.7884,-0.12773 -0.78285,-0.14995 -0.78284,-0.1555 -0.78285,-0.17216 -0.77729,-0.18881 -0.77174,-0.19993 -0.77174,-0.21659 -0.76619,-0.22214 -0.76064,-0.24435 -0.76063,-0.24991 -0.75509,-0.27212 -0.749527,-0.27767 -0.74398,-0.29434 -0.73843,-0.30544 -0.73287,-0.31655 -0.72733,-0.33321 -0.72177,-0.34431 -0.710666,-0.35543 -0.710668,-0.37208 -0.705115,-0.37764 -0.694012,-0.3943 -0.688459,-0.4054 -0.682907,-0.42207 -0.671803,-0.42762 -0.666251,-0.43872 -0.660699,-0.45539 -0.649595,-0.46649 -0.644042,-0.47205 -0.632939,-0.4887 -0.627386,-0.49982 -0.616282,-0.50537 -0.605178,-0.52202 -0.599626,-0.52759 -0.588522,-0.53869 -0.582969,-0.54979 -0.571866,-0.5609 -0.560761,-0.57201 -0.549657,-0.58312 -0.538553,-0.58867 -0.527448,-0.59978 -0.521897,-0.60533 -0.50524,-0.61643 -0.499688,-0.62755 -0.488584,-0.6331 -0.471928,-0.6442 -0.466376,-0.64976 -0.455271,-0.66087 -0.438615,-0.66641 -0.427511,-0.67198 -0.421959,-0.68308 -0.405303,-0.68863 -0.394198,-0.69419 -0.377543,-0.70529 -0.37199,-0.71085 -0.355334,-0.71084 -0.344229,-0.72196 -0.333126,-0.7275 -0.316469,-0.73307 -0.305365,-0.73861 -0.294261,-0.74417 -0.277604,-0.74972 -0.272053,-0.75527 -0.249844,-0.76083 -0.244292,-0.76083 -0.222084,-0.76638 -0.216531,-0.77194 -0.199875,-0.77193 -0.188771,-0.77749 -0.172115,-0.78304 -0.155459,-0.78305 -0.149906,-0.78304 -0.127698,-0.78859 -0.122146,-0.79415 -0.10549,-0.79415 -0.08883,-0.79415 -0.07773,-0.79415 -0.06107,-0.7997 -0.04997,-0.79415 -0.03331,-0.79971 -0.02221,-0.7997 -0.0056,-0.7997 0.0056,-0.7997 0.02221,-0.79971 0.03331,-0.7997 0.04997,-0.79415 0.06107,-0.7997 0.07773,-0.79415 0.08883,-0.79415 0.10549,-0.79415 0.122146,-0.79415 0.127698,-0.78859 0.149906,-0.78305 0.155459,-0.78304 0.172115,-0.78304 0.188771,-0.77749 0.199875,-0.77193 0.216531,-0.77194 0.222084,-0.76638 0.244292,-0.76083 0.249844,-0.76083 0.272053,-0.75527 0.277604,-0.74972 0.294261,-0.74417 0.305365,-0.73862 0.316469,-0.73306 0.333126,-0.7275 0.344229,-0.72196 0.355334,-0.71085 0.37199,-0.71084 0.377543,-0.7053 0.394198,-0.69418 0.405303,-0.68864 0.421959,-0.68307 0.427511,-0.67198 0.438615,-0.66642 0.455271,-0.66086 0.466376,-0.64976 0.471928,-0.6442 0.488584,-0.6331 0.499688,-0.62755 0.50524,-0.61643 0.521897,-0.60534 0.527448,-0.59977 0.538553,-0.58867 0.549657,-0.58312 0.560761,-0.57201 0.571866,-0.5609 0.582969,-0.5498 0.588522,-0.53869 0.599626,-0.52758 0.605178,-0.52203 0.616282,-0.50536 0.627386,-0.49982 0.632939,-0.4887 0.644042,-0.47205 0.649595,-0.46649 0.660699,-0.45539 0.666251,-0.43873 0.671803,-0.42762 0.682907,-0.42206 0.688459,-0.40541 0.694012,-0.39429 0.705115,-0.37764 0.710668,-0.37208 0.710666,-0.35543 0.72177,-0.34431 0.72733,-0.33321 0.73287,-0.31655 0.73843,-0.30545 0.74398,-0.29433 0.749527,-0.27767 0.75509,-0.27213 0.76063,-0.2499 0.76064,-0.24436 0.76619,-0.22214 0.77174,-0.21658 0.77174,-0.19993 0.77729,-0.18882 0.78285,-0.17215 0.78284,-0.1555 0.78285,-0.14995 0.7884,-0.12773 0.79394,-0.12217 0.79395,-0.10552 0.79395,-0.0889 0.79395,-0.0777 0.7995,-0.0611 0.79395,-0.05 0.7995,-0.0333 0.7995,-0.0222 0.7995,-0.006 0.79951,0.006 0.7995,0.0222 0.7995,0.0333 0.79395,0.05 0.7995,0.0611 0.79395,0.0777 0.79395,0.0889 0.79395,0.10552 0.79394,0.12217 0.7884,0.12773 0.78285,0.14995 0.78284,0.1555 0.78285,0.17215 0.77729,0.18882 0.77174,0.19993 0.77174,0.21658 0.76619,0.22214 0.76064,0.24436 0.76063,0.2499 0.75509,0.27213 0.74953,0.27767 0.74398,0.29433 0.73843,0.30545 0.73287,0.31655 0.72733,0.33321 0.72177,0.34431 0.71067,0.35543 0.71066,0.37208 0.70512,0.37764 0.69401,0.39429 0.68846,0.40541 0.68291,0.42206 0.6718,0.42762 0.66625,0.43873 0.6607,0.45539 0.64959,0.46649 0.64405,0.47205 0.63294,0.4887 0.62738,0.49982 0.61628,0.50536 0.60518,0.52203 0.59963,0.52758 0.58852,0.53869 0.58297,0.5498 0.57186,0.5609 0.56077,0.57201 0.54965,0.58312 0.53856,0.58867 0.52744,0.59977 0.5219,0.60534 0.50524,0.61643 0.49969,0.62755 0.48858,0.6331 0.47193,0.6442 0.46638,0.64976 0.45527,0.66086 0.43861,0.66642 0.42751,0.67198 0.42196,0.68307 0.40531,0.68864 0.39419,0.69418 0.37755,0.7053 0.37199,0.71084 0.35533,0.71085 0.34423,0.72196 0.33313,0.7275 0.31646,0.73306 0.30537,0.73862 0.29426,0.74417 0.27761,0.74972 0.27205,0.75527 0.24984,0.76083 0.24429,0.76083 0.22209,0.76638 0.21653,0.77194 0.19987,0.77193 0.18878,0.77749 0.17211,0.78304 0.15546,0.78304 0.14991,0.78305 0.12769,0.78859 0.12215,0.79415 0.10549,0.79415 0.0888,0.79415 0.0777,0.79415 0.0611,0.7997 0.05,0.79415 0.0333,0.7997 0.0222,0.79971 z"
       style="fill:#377eb8;fill-opacity:0.05899999;fill-rule:nonzero;stroke:#377eb8;stroke-width:0.75;stroke-linecap:round;stroke-linejoin:round;stroke-miterlimit:10;stroke-dasharray:none;stroke-opacity:1"
       id="path30"
       inkscape:connector-curvature="0" /><text
       transform="scale(0.99987392,-1.0001261)"
       style="font-variant:normal;font-weight:normal;font-size:9.99502373px;font-family:Helvetica;-inkscape-font-specification:Helvetica;writing-mode:lr-tb;fill:#000000;fill-opacity:1;fill-rule:nonzero;stroke:none;stroke-width:1"
       id="text34"
       x="108.74488"
       y="-238.49364"><tspan
         sodipodi:role="line"
         id="tspan32"
         style="font-size:12px;stroke-width:1"
         x="108.74488"
         y="-238.49364">Fcn2</tspan></text>
<text
       transform="scale(0.99987392,-1.0001261)"
       style="font-variant:normal;font-weight:normal;font-size:9.99502373px;font-family:Helvetica;-inkscape-font-specification:Helvetica;writing-mode:lr-tb;fill:#000000;fill-opacity:1;fill-rule:nonzero;stroke:none;stroke-width:1"
       id="text44"
       x="122.62131"
       y="-186.57503"><tspan
         sodipodi:role="line"
         id="tspan42"
         style="font-size:12px;stroke-width:1"
         x="122.62131"
         y="-186.57503">480</tspan></text>
<text
       transform="scale(0.99987392,-1.0001261)"
       style="font-variant:normal;font-weight:normal;font-size:9.99502373px;font-family:Helvetica;-inkscape-font-specification:Helvetica;writing-mode:lr-tb;fill:#000000;fill-opacity:1;fill-rule:nonzero;stroke:none;stroke-width:1"
       id="text48"
       x="31.000254"
       y="-186.57503"><tspan
         sodipodi:role="line"
         id="tspan46"
         style="font-size:12px;stroke-width:1"
         x="31.000254"
         y="-186.57503">466</tspan></text>
<text
       transform="scale(0.99987392,-1.0001261)"
       style="font-variant:normal;font-weight:normal;font-size:9.99502373px;font-family:Helvetica;-inkscape-font-specification:Helvetica;writing-mode:lr-tb;fill:#000000;fill-opacity:1;fill-rule:nonzero;stroke:none;stroke-width:1"
       id="text52"
       x="79.587173"
       y="-186.57503"><tspan
         sodipodi:role="line"
         id="tspan50"
         style="font-size:12px;stroke-width:1"
         x="79.587173"
         y="-186.57503">43</tspan></text>
<text
       xml:space="preserve"
       style="font-style:normal;font-variant:normal;font-weight:normal;font-stretch:normal;font-size:8px;line-height:125%;font-family:Helvetica;-inkscape-font-specification:Helvetica;letter-spacing:0px;word-spacing:0px;fill:#000000;fill-opacity:1;stroke:none;stroke-width:0.75px;stroke-linecap:butt;stroke-linejoin:miter;stroke-opacity:1"
       x="80.090141"
       y="96.797707"
       id="text864"
       transform="scale(1,-1)"><tspan
         sodipodi:role="line"
         id="tspan862"
         x="80.090141"
         y="104.32"
         style="stroke-width:0.75px" /></text>
<flowRoot
       xml:space="preserve"
       id="flowRoot952"
       style="font-style:normal;font-variant:normal;font-weight:normal;font-stretch:normal;font-size:10.66666698px;line-height:125%;font-family:Helvetica;-inkscape-font-specification:Helvetica;letter-spacing:0px;word-spacing:0px;fill:#000000;fill-opacity:1;stroke:none;stroke-width:1.80089617px;stroke-linecap:butt;stroke-linejoin:miter;stroke-opacity:1"
       transform="matrix(0.41640685,0,0,-0.41651185,60.504441,433.16617)"><flowRegion
         id="flowRegion954"
         style="stroke-width:1.80089617px"><rect
           id="rect956"
           width="353.05515"
           height="164.83167"
           x="-99.661018"
           y="717.55933"
           style="stroke-width:1.80089617px" /></flowRegion><flowPara
         id="flowPara1912"
         style="font-style:normal;font-size:24.01194763px;stroke-width:1.80089617px" /></flowRoot><path
       style="fill:none;fill-rule:evenodd;stroke:#000000;stroke-width:1.125;stroke-linecap:butt;stroke-linejoin:miter;stroke-miterlimit:4;stroke-dasharray:none;stroke-opacity:1"
       d="m 73.499898,137.75558 8.803379,33.54514"
       id="path1966"
       inkscape:connector-curvature="0" /><g
       id="g869"
       transform="translate(168.23533,-85.081627)" /><g
       id="g871"
       transform="translate(157.55736,-85.081627)"><path
         d="M 59.73,231.4 H 70.4 v 99.8 H 59.73 Z"
         style="fill:#4daf4a;fill-opacity:1;fill-rule:nonzero;stroke:#000000;stroke-width:0.75;stroke-linecap:round;stroke-linejoin:round;stroke-miterlimit:10;stroke-dasharray:none;stroke-opacity:1"
         id="path873"
         inkscape:connector-curvature="0" /><path
         d="m 70.4,231.4 h 10.67 v 0.18 H 70.4 Z"
         style="fill:#377eb8;fill-opacity:1;fill-rule:nonzero;stroke:#000000;stroke-width:0.75;stroke-linecap:round;stroke-linejoin:round;stroke-miterlimit:10;stroke-dasharray:none;stroke-opacity:1"
         id="path875"
         inkscape:connector-curvature="0" /><path
         d="m 91.73,231.4 h 10.67 v 66.56 H 91.73 Z"
         style="fill:#4daf4a;fill-opacity:1;fill-rule:nonzero;stroke:#000000;stroke-width:0.75;stroke-linecap:round;stroke-linejoin:round;stroke-miterlimit:10;stroke-dasharray:none;stroke-opacity:1"
         id="path877"
         inkscape:connector-curvature="0" /><path
         d="m 102.4,231.4 h 10.67 v 70.08 H 102.4 Z"
         style="fill:#377eb8;fill-opacity:1;fill-rule:nonzero;stroke:#000000;stroke-width:0.75;stroke-linecap:round;stroke-linejoin:round;stroke-miterlimit:10;stroke-dasharray:none;stroke-opacity:1"
         id="path879"
         inkscape:connector-curvature="0" /></g><text
       y="221.5894"
       x="26.980761"
       id="text885"
       style="font-variant:normal;font-weight:normal;font-size:12px;font-family:Helvetica;-inkscape-font-specification:Helvetica;writing-mode:lr-tb;fill:#ff7f00;fill-opacity:1;fill-rule:nonzero;stroke:none"
       transform="matrix(0,1,1,0,0,0)"><tspan
         style="font-size:10px;fill:#ff7f00;fill-opacity:1"
         id="tspan1072"
         y="221.5894"
         x="26.980761"
         sodipodi:role="line">Non−alcoholic fatty liver</tspan><tspan
         style="font-size:10px;fill:#ff7f00;fill-opacity:1"
         id="tspan1082"
         y="236.5894"
         x="26.980761"
         sodipodi:role="line"> disease (NAFLD)</tspan></text>
<text
       y="256.79282"
       x="33.880173"
       id="text889"
       style="font-variant:normal;font-weight:normal;font-size:12px;font-family:Helvetica;-inkscape-font-specification:Helvetica;writing-mode:lr-tb;fill:#984ea3;fill-opacity:1;fill-rule:nonzero;stroke:none"
       transform="matrix(0,1,1,0,0,0)"><tspan
         style="font-size:10px;fill:#984ea3;fill-opacity:1"
         id="tspan1074"
         y="256.79282"
         x="33.880173"
         sodipodi:role="line">Protein processing in</tspan><tspan
         style="font-size:10px;fill:#984ea3;fill-opacity:1"
         id="tspan1086"
         y="271.79282"
         x="33.880173"
         sodipodi:role="line">endoplasmic reticulum</tspan></text>
<path
       inkscape:connector-curvature="0"
       id="path893"
       style="fill:none;stroke:#000000;stroke-width:0.75;stroke-linecap:round;stroke-linejoin:round;stroke-miterlimit:10;stroke-dasharray:none;stroke-opacity:1"
       d="m 240.23463,263.83491 h 55.52459 v -35.64954 h -55.52459 z"
       sodipodi:nodetypes="ccccc" /><path
       inkscape:connector-curvature="0"
       id="path895"
       style="fill:#4daf4a;fill-opacity:1;fill-rule:nonzero;stroke:#000000;stroke-width:0.75;stroke-linecap:round;stroke-linejoin:round;stroke-miterlimit:10;stroke-dasharray:none;stroke-opacity:1"
       d="m 247.2594,256.81014 h 8.64 v -7.2 h -8.64 z" /><path
       inkscape:connector-curvature="0"
       id="path897"
       style="fill:#377eb8;fill-opacity:1;fill-rule:nonzero;stroke:#000000;stroke-width:0.75;stroke-linecap:round;stroke-linejoin:round;stroke-miterlimit:10;stroke-dasharray:none;stroke-opacity:1"
       d="m 247.2594,242.41014 h 8.64 v -7.2 h -8.64 z" /><text
       id="text901"
       style="font-variant:normal;font-weight:normal;font-size:12px;font-family:Helvetica;-inkscape-font-specification:Helvetica;writing-mode:lr-tb;fill:#000000;fill-opacity:1;fill-rule:nonzero;stroke:none"
       transform="scale(1,-1)"
       x="266.6994"
       y="-248.90016"><tspan
         id="tspan899"
         sodipodi:role="line"
         y="-248.90016"
         x="266.6994 273.3714 280.0434">Lbp</tspan></text>
<text
       id="text905"
       style="font-variant:normal;font-weight:normal;font-size:12px;font-family:Helvetica;-inkscape-font-specification:Helvetica;writing-mode:lr-tb;fill:#000000;fill-opacity:1;fill-rule:nonzero;stroke:none"
       transform="scale(1,-1)"
       x="266.6994"
       y="-234.50017"><tspan
         id="tspan903"
         sodipodi:role="line"
         y="-234.50017"
         x="266.6994 274.0314 280.0314 286.7034">Fcn2</tspan></text>
<text
       id="text909"
       style="font-variant:normal;font-weight:normal;font-size:12px;font-family:Helvetica;-inkscape-font-specification:Helvetica;writing-mode:lr-tb;fill:#000000;fill-opacity:1;fill-rule:nonzero;stroke:none"
       transform="matrix(0,1,1,0,0,0)"
       x="158.53838"
       y="177.08585"><tspan
         id="tspan907"
         sodipodi:role="line"
         y="177.08585"
         x="158.53838 165.54639 168.21039 174.88239 181.55438 188.22639 194.89839 198.23439 204.90639 208.24239 212.23839 220.24239 228.90639">−log10 p (BH)</tspan></text>
<g
       id="g911"
       transform="translate(157.55736,-85.081627)"><path
         d="m 57.6,231.4 v 93.89"
         style="fill:none;stroke:#000000;stroke-width:0.75;stroke-linecap:round;stroke-linejoin:round;stroke-miterlimit:10;stroke-dasharray:none;stroke-opacity:1"
         id="path913"
         inkscape:connector-curvature="0" /><path
         d="M 57.6,231.4 H 50.4"
         style="fill:none;stroke:#000000;stroke-width:0.75;stroke-linecap:round;stroke-linejoin:round;stroke-miterlimit:10;stroke-dasharray:none;stroke-opacity:1"
         id="path915"
         inkscape:connector-curvature="0" /><path
         d="M 57.6,254.87 H 50.4"
         style="fill:none;stroke:#000000;stroke-width:0.75;stroke-linecap:round;stroke-linejoin:round;stroke-miterlimit:10;stroke-dasharray:none;stroke-opacity:1"
         id="path917"
         inkscape:connector-curvature="0" /><path
         d="M 57.6,278.34 H 50.4"
         style="fill:none;stroke:#000000;stroke-width:0.75;stroke-linecap:round;stroke-linejoin:round;stroke-miterlimit:10;stroke-dasharray:none;stroke-opacity:1"
         id="path919"
         inkscape:connector-curvature="0" /><path
         d="M 57.6,301.81 H 50.4"
         style="fill:none;stroke:#000000;stroke-width:0.75;stroke-linecap:round;stroke-linejoin:round;stroke-miterlimit:10;stroke-dasharray:none;stroke-opacity:1"
         id="path921"
         inkscape:connector-curvature="0" /><path
         d="M 57.6,325.29 H 50.4"
         style="fill:none;stroke:#000000;stroke-width:0.75;stroke-linecap:round;stroke-linejoin:round;stroke-miterlimit:10;stroke-dasharray:none;stroke-opacity:1"
         id="path923"
         inkscape:connector-curvature="0" /><text
         transform="matrix(1,0,0,-1,26.52,227.09)"
         style="font-variant:normal;font-weight:normal;font-size:12px;font-family:Helvetica;-inkscape-font-specification:Helvetica;writing-mode:lr-tb;fill:#000000;fill-opacity:1;fill-rule:nonzero;stroke:none"
         id="text927"><tspan
           x="0 6.6719999 10.008"
           y="0"
           sodipodi:role="line"
           id="tspan925">0.0</tspan></text>
<text
         transform="matrix(1,0,0,-1,26.52,250.56)"
         style="font-variant:normal;font-weight:normal;font-size:12px;font-family:Helvetica;-inkscape-font-specification:Helvetica;writing-mode:lr-tb;fill:#000000;fill-opacity:1;fill-rule:nonzero;stroke:none"
         id="text931"><tspan
           x="0 6.6719999 10.008"
           y="0"
           sodipodi:role="line"
           id="tspan929">0.5</tspan></text>
<text
         transform="matrix(1,0,0,-1,26.52,274.03)"
         style="font-variant:normal;font-weight:normal;font-size:12px;font-family:Helvetica;-inkscape-font-specification:Helvetica;writing-mode:lr-tb;fill:#000000;fill-opacity:1;fill-rule:nonzero;stroke:none"
         id="text935"><tspan
           x="0 6.6719999 10.008"
           y="0"
           sodipodi:role="line"
           id="tspan933">1.0</tspan></text>
<text
         transform="matrix(1,0,0,-1,26.52,297.51)"
         style="font-variant:normal;font-weight:normal;font-size:12px;font-family:Helvetica;-inkscape-font-specification:Helvetica;writing-mode:lr-tb;fill:#000000;fill-opacity:1;fill-rule:nonzero;stroke:none"
         id="text939"><tspan
           x="0 6.6719999 10.008"
           y="0"
           sodipodi:role="line"
           id="tspan937">1.5</tspan></text>
<text
         transform="matrix(1,0,0,-1,26.52,320.98)"
         style="font-variant:normal;font-weight:normal;font-size:12px;font-family:Helvetica;-inkscape-font-specification:Helvetica;writing-mode:lr-tb;fill:#000000;fill-opacity:1;fill-rule:nonzero;stroke:none"
         id="text943"><tspan
           x="0 6.6719999 10.008"
           y="0"
           sodipodi:role="line"
           id="tspan941">2.0</tspan></text>
</g><g
       id="g945"
       transform="translate(157.55736,-85.081627)"><g
         id="g947"
         clip-path="url(#clipPath951)"><path
           d="m 57.6,292.47 h 57.6"
           style="fill:none;stroke:#bebebe;stroke-width:1.5;stroke-linecap:round;stroke-linejoin:round;stroke-miterlimit:10;stroke-dasharray:4.50000011, 7.50000019;stroke-dashoffset:0;stroke-opacity:1"
           id="path953"
           inkscape:connector-curvature="0" /><path
           d="m 57.6,231.4 h 57.6"
           style="fill:none;stroke:#000000;stroke-width:0.75;stroke-linecap:round;stroke-linejoin:round;stroke-miterlimit:10;stroke-dasharray:none;stroke-opacity:1"
           id="path955"
           inkscape:connector-curvature="0" /></g></g><path
       style="fill:none;fill-rule:evenodd;stroke:#ff7f00;stroke-width:1.125;stroke-linecap:butt;stroke-linejoin:miter;stroke-miterlimit:4;stroke-dasharray:none;stroke-opacity:1"
       d="m 215.00363,138.7561 h 23.49152"
       id="path1078"
       inkscape:connector-curvature="0" /><path
       inkscape:connector-curvature="0"
       id="path1088"
       d="m 249.17312,138.7561 h 23.49152"
       style="fill:none;fill-rule:evenodd;stroke:#984ea3;stroke-width:1.125;stroke-linecap:butt;stroke-linejoin:miter;stroke-miterlimit:4;stroke-dasharray:none;stroke-opacity:1" /><flowRoot
       xml:space="preserve"
       id="flowRoot1098"
       style="font-style:normal;font-variant:normal;font-weight:normal;font-stretch:normal;font-size:13.33333302px;line-height:125%;font-family:Helvetica;-inkscape-font-specification:Helvetica;letter-spacing:0px;word-spacing:0px;fill:#000000;fill-opacity:1;stroke:none;stroke-width:1px;stroke-linecap:butt;stroke-linejoin:miter;stroke-opacity:1"
       transform="matrix(0.75000002,0,0,-0.75000002,50.995149,331.69678)"><flowRegion
         id="flowRegion1100"
         style="font-size:13.33333302px"><rect
           id="rect1102"
           width="206.44069"
           height="189.35596"
           x="-53.389832"
           y="263.66101"
           style="font-size:13.33333302px" /></flowRegion><flowPara
         id="flowPara1104">Traf4, F12, Arhgef19, Zyx, Lrp1, Bri3, Upf1, mt-Te, Col18a1, Endog, Rxra, Pkdcc, Man2b2, B4galnt1, Ssb, Tfr2, Acsf2, Cebpb, Sugt1, Eloc, Lrp3, Zer1, Furin, Sept7, Lipo3, Cox6c, Pitpnm2, Rin3, Slc29a1, Mospd3, Ptprf, Krcc1, Dvl1, Rps24-ps3, Gaa, Eapp, Pnkd, Agmat, Tns2, Ncor2, mt-Nd1, Cyp8b1, Mtif2</flowPara><flowPara
         id="flowPara1106" /></flowRoot><text
       xml:space="preserve"
       style="font-style:normal;font-variant:normal;font-weight:normal;font-stretch:normal;font-size:12px;line-height:125%;font-family:Helvetica;-inkscape-font-specification:Helvetica;letter-spacing:0px;word-spacing:0px;fill:#000000;fill-opacity:1;stroke:none;stroke-width:0.75px;stroke-linecap:butt;stroke-linejoin:miter;stroke-opacity:1"
       x="193.54601"
       y="-9.5526896"
       id="text1110"
       transform="scale(1,-1)"><tspan
         sodipodi:role="line"
         id="tspan1108"
         x="193.54601"
         y="-9.5526896"
         style="stroke-width:0.75px">KEGG pathways</tspan></text>
</g></svg>